# xmcd CD database file generated by OrangeCD 6.3
#
# Track frame offsets:
#	150
#	15858
#	31918
#	52314
#	69541
#	96352
#	110937
#	128995
#	150821
#	168832
#	187426
#	205629
#	223015
#	248737
#
# Disc length: 3590 seconds
#
# Revision: 2
# Processed by: cddbd v1.5.2PL0 Copyright (c) Steve Scherf et al.
# Submitted via: OrangeCD 6.3
#
DISCID=c40e040e
DTITLE=Gwiazdy Polskiej Muzyki Lat 80 - vol.26 John Porter Bend
DYEAR=2007
DGENRE=Blues
TTITLE0=I'm Just A Singer
TTITLE1=Ain't Got My Music
TTITLE2=Selling Water by the River
TTITLE3=Running
TTITLE4=One Love
TTITLE5=Pogotowie 999
TTITLE6=Helicopters
TTITLE7=Crazy, Crazy, Crazy
TTITLE8=Heavy Traffic
TTITLE9=One Million Songs of Sadness
TTITLE10=Waterfall
TTITLE11=Something Born
TTITLE12=Magic Moments
TTITLE13=Right Time
EXTD=
EXTT0=
EXTT1=
EXTT2=
EXTT3=
EXTT4=
EXTT5=
EXTT6=
EXTT7=
EXTT8=
EXTT9=
EXTT10=
EXTT11=
EXTT12=
EXTT13=
PLAYORDER=
